<svg xmlns="http://www.w3.org/2000/svg" viewBox="0 0 512.2 512.2" xml:space="preserve">
  <path style="fill:#d75d72" d="M123.7 1 88.4 9.8s-39 210.5-61.8 273.7c-24.7 68 .5 187.2 97 185.4 0 0 26 0 53.2-10.5 53.9-20.6 69.8-88.7 32.3-132.6-15-17.6-36.4-26-59-33.5-53-17.6-70.6-53-61.7-88.3C95 177 123.7 1 123.7 1m264.8 0 35.3 8.8s39 210.5 61.8 273.7c24.6 68-.6 187.2-97.1 185.4 0 0-26 0-53.1-10.5-54-20.6-69.8-88.7-32.3-132.6 15-17.6 36.4-26 59-33.5 52.9-17.6 70.5-53 61.7-88.3C417 177 388.5 1 388.5 1" transform="translate(0 -1)" />
  <path style="fill:#802d40" d="M388.5 468.9s-26 0-53.1-10.5a82.5 82.5 0 0 1-52.3-86.6h-54a82.5 82.5 0 0 1-52.3 86.6C149.6 469 123.7 469 123.7 469c-53.3 1-84.8-34.8-98.2-78.6L36 449a74 74 0 0 0 24 41.1c28.4 24.9 73.2 28.7 109.2 16.4 18.5-6.4 34.4-17.3 52-25.6 11-5.1 22.3-12 34.8-12 12.5 0 23.8 6.9 34.7 12 17.6 8.3 33.5 19.2 52.1 25.6 36 12.3 80.7 8.5 109-16.4A74 74 0 0 0 476 449l10.7-58.6c-13.4 43.8-45 79.6-98.2 78.6" transform="translate(0 -1)" />
  <path style="fill:#ad4d62" d="M303 325.8c15.1-17.6 36.5-26 59-33.5 3.5-1.2 6.9-2.4 10-3.7-26.1-12.1-54.2-27.3-63-40.4-17.6-26.5-17.6-79.5 89.6-185.5L388.6 1S309 133.4 256 133.4 123.7 1 123.7 1l-10.2 61.7c107.3 106 107.3 159 89.6 185.5-8.7 13-36.8 28.3-63 40.3a155 155 0 0 0 10 3.8c22.5 7.5 44 16 59 33.5a84.5 84.5 0 0 1 20 46h54a84.5 84.5 0 0 1 20-46" transform="translate(0 -1)" />
  <path style="fill:#f0c419" d="M106 336.4c-53-17.6-76.2-58.2-67.3-93.5a502.2 502.2 0 0 1-12.1 40.6c-24.7 68 .5 187.2 97 185.3 0 0 26 0 53.2-10.4l2.3-1a84.6 84.6 0 0 0-14.1-87.5c-15-17.6-36.5-26-59-33.5m300.1 0c53-17.6 76.2-58.2 67.4-93.5 4.3 16.3 8.4 30.4 12 40.6 24.7 68-.5 187.2-97 185.3 0 0-26 0-53.2-10.4l-2.2-1a84.6 84.6 0 0 1 14-87.5c15.1-17.6 36.5-26 59-33.5" transform="translate(0 -1)" />
</svg>
